<?xml version="1.0" encoding="iso-8859-1"?>
<!-- Uploaded to: SVG Repo, www.svgrepo.com, Generator: SVG Repo Mixer Tools -->
<svg height="800px" width="800px" version="1.1" id="Layer_1" xmlns="http://www.w3.org/2000/svg" xmlns:xlink="http://www.w3.org/1999/xlink"
	 viewBox="0 0 496.158 496.158" xml:space="preserve">
<path style="fill:#337180;" d="M248.082,0.003C111.07,0.003,0,111.063,0,248.085c0,137.001,111.07,248.07,248.082,248.07
	c137.006,0,248.076-111.069,248.076-248.07C496.158,111.062,385.088,0.003,248.082,0.003z"/>
<path style="fill:#CCBF7F;" d="M348.444,148.162c-55.165-55.165-144.61-55.167-199.777,0
	c-31.268,31.268-44.792,73.545-40.616,114.352c3.19,31.191,16.717,61.526,40.616,85.425c55.169,55.168,144.608,55.169,199.777,0
	c24.778-24.779,38.392-56.472,40.912-88.867C392.447,219.342,378.835,178.553,348.444,148.162z"/>
<path style="fill:#EAE0A7;" d="M348.444,148.162c-55.165-55.165-144.61-55.167-199.777,0
	c-31.268,31.268-44.792,73.545-40.616,114.352c25.555,46.46,78.512,78.396,139.737,78.393c62.728,0,116.773-33.521,141.568-81.834
	C392.447,219.342,378.835,178.553,348.444,148.162z"/>
<path style="fill:#EDC92F;" d="M361.014,287.642c-0.07,0.141-0.118,0.303-0.19,0.441l0.665,0.782
	c0.162-0.148,0.291-0.265,0.348-0.316L361.014,287.642z"/>
<path style="fill:#3A3A39;" d="M303.182,378.336c-0.561,0.233-1.113,0.485-1.672,0.715l0.033,0.037l1.67-0.715L303.182,378.336z"/>
<path style="fill:#EA4949;" d="M384.463,210.221l-18.717,18.718h-0.001c-10.62-10.556-38.035-29.188-43.37-32.775
	c-3.251-28.238-16.909-43.168-20.027-46.242l17.865-19.361l12.748,4.056c0,0-10.813-8.03-22.791-13.664l8.71,8.849l-17.726,19.211
	c-21.055-11.737-50.654-6.854-56.019-5.833c-13.837-14.042-30.03-18.669-35.7-19.924l14.555-14.668c0,0-37.922,3.678-72.674,36.907
	l4.061,4.094c-3.595,3.791-19.059,21.859-18.801,51.487c-18.851,19.262-22.708,42.745-23.288,47.242l-6.044-0.325l-0.08,1.492
	l6.119,0.331c1.914,17.182,16.889,37.632,20.075,41.813c-0.071,3.48-0.165,29.25,11.977,49.945l1.291-0.759
	c-11.572-19.716-11.84-44.176-11.779-48.766l32.528-13.292c7.113,5.368,42.311,31.688,52.788,35.075L231.5,358.95
	c19.025,8.447,56.373,2.79,56.373,2.79c18.786-18.787,26.006-38.911,27.526-43.688c14.636-1.287,42.551-26.01,46.089-29.187
	l15.529,18.234C377.017,307.097,400.289,263.411,384.463,210.221z M138.073,200.935c-0.212-28.983,14.874-46.612,18.356-50.286
	l0.137,0.139c0,0,25.044-21.658,50.579-26.515l-0.008,0.057c0.208,0.03,20.181,2.93,36.728,19.678
	c-11.553,18.03-16.679,42.725-17.714,48.237c-10.16,1.514-47.664,22.408-54.397,26.194L138.073,200.935z M220.678,312.425
	c-9.951-3.148-44.914-29.231-52.252-34.746c-2.036-19.381,2.772-51.421,3.779-57.778c5.723-3.214,45.027-25.136,54.429-26.209
	c6.259,3.137,45.172,27.222,50.196,30.335l-2.594,62.11L220.678,312.425z M361.023,287.651l-0.191-0.212
	c-0.308,0.28-30.87,27.923-45.646,29.136l-0.002-0.002h-0.001l-39.449-30.524l0,0l-0.001-0.001l2.591-61.972
	c7.06-2.689,37.719-22.95,43.269-26.635c5.462,3.678,33.704,22.875,43.609,33.084C365.965,236.428,369.737,269.604,361.023,287.651z
	"/>
<g>
	<path style="fill:#DB3737;" d="M311.113,328.711c-19.358,7.8-40.765,12.195-63.325,12.195c-7.181,0-14.233-0.477-21.153-1.327
		l4.725,18.807c-4.653,2.303-26.256,12.845-32.87,13.778c-15.739-4.535-46.005-26.98-51.905-31.431
		c-9.208-15.739-11.226-34.426-11.638-43.666c-0.51-0.487-1.043-0.957-1.551-1.452c0.262,8.575,1.97,28.229,11.395,44.945
		l-1.752,1.373c1.815,2.039,3.676,4.051,5.629,6.005c14.932,14.931,32.384,25.787,50.977,32.633l-0.464-7.001
		c8.006-1.519,30.879-12.858,33.507-14.174c17.557,7.032,48.63,3.243,54.222,2.477l14.602,17.177
		c0.559-0.23,1.111-0.482,1.672-0.715l-14.838-17.094C299.942,349.506,307.06,337.322,311.113,328.711z"/>
	<path style="fill:#DB3737;" d="M364.924,292.896l12.016,14.109c6.993-15.258,11.137-31.505,12.417-47.933
		C383.016,271.424,374.743,282.79,364.924,292.896z"/>
</g>
</svg>